Coordinates
version=1
nRows=19
nColumns=34
inDegrees=yes

Units are S.I. units (second, meters, Newtons, ...)
If the header above contains a line with 'inDegrees', this indicates whether rotational values are in degrees (yes) or radians (no).

endheader
time	pelvis_tilt	pelvis_list	pelvis_rotation	pelvis_tx	pelvis_ty	pelvis_tz	hip_flexion_r	hip_adduction_r	hip_rotation_r	knee_angle_r	ankle_angle_r	subtalar_angle_r	mtp_angle_r	hip_flexion_l	hip_adduction_l	hip_rotation_l	knee_angle_l	ankle_angle_l	subtalar_angle_l	mtp_angle_l	lumbar_extension	lumbar_bending	lumbar_rotation	arm_flex_r	arm_add_r	arm_rot_r	elbow_flex_r	pro_sup_r	arm_flex_l	arm_add_l	arm_rot_l	elbow_flex_l	pro_sup_l
      2.75000000	    -24.92791834	      1.19149597	    -10.82174742	      1.12792027	      0.74895504	     -0.15474999	     70.94715483	     -1.53667834	     -4.86690713	     82.03146869	     25.39969859	    -35.00000000	      0.00000000	     75.96542572	     -3.08231947	     10.23213182	     79.85388871	     29.23091272	    -11.30884431	      0.00000000	    -24.27104616	     -1.77144674	     -4.49568356	    385.04224716	    -18.85097377	    352.54297976	     84.38484292	     88.18378235	    220.79298861	   -158.99941549	    181.16427112	     45.32020747	     76.65374979
      2.76666670	    -26.73762539	      1.75836239	    -10.67167240	      1.11498658	      0.71336185	     -0.16132405	     77.22975418	     -2.14543221	     -4.08586117	     87.99848362	     27.98020001	    -35.00000000	      0.00000000	     82.87228860	     -1.96222124	     10.56587362	     86.85901727	     32.02751805	    -10.55694271	      0.00000000	    -26.12961703	     -1.70089245	     -4.45475922	    389.91226030	    -20.85478569	    352.86422090	     86.49536825	     88.52104089	    226.83905946	   -159.28860796	    182.43328263	     45.37089917	     77.14187395
      2.78333330	    -28.75472659	      2.50181419	    -10.56421087	      1.10655712	      0.68145742	     -0.17583000	     83.11180180	     -3.06051893	     -2.79379816	     92.74328693	     29.09601884	    -34.59129007	      0.00000000	     89.51915606	     -0.67386528	     10.46865832	     92.29992709	     33.16056830	    -10.06578917	      0.00000000	    -27.23420147	     -1.50177056	     -4.11443070	    394.43709413	    -23.29567203	    353.58241128	     87.45672533	     88.80581289	    233.42721025	   -160.29535933	    185.64873217	     43.20572459	     77.70218152
      2.80000000	    -30.60452495	      3.33552837	    -10.45208076	      1.10263615	      0.65801834	     -0.18311952	     87.26799895	     -3.53199073	     -1.49842281	     96.19460189	     31.36068031	    -33.24173575	      0.00000000	     94.92413452	      0.17211291	      9.78633288	     95.95495006	     33.56168416	     -9.93978033	      0.00000000	    -28.03876399	     -1.39442761	     -4.10268952	    398.98794641	    -25.05394182	    355.10057773	     87.38320492	     88.75464664	    238.72906137	   -161.53614455	    187.31638865	     41.18671061	     77.65386771
      2.81666670	    -32.41165662	      4.27111678	    -10.82428354	      1.09597670	      0.63482953	     -0.19613789	     92.14215439	     -4.30365920	      0.28878035	     98.82989543	     30.11519454	    -32.71685579	      0.00000000	     99.60166198	      0.64065828	      8.85986851	     98.85469102	     34.23536936	     -9.57931251	      0.00000000	    -28.31942628	     -1.16780728	     -3.81438144	    404.78858096	    -26.57837557	    358.21836339	     86.27473471	     88.65875854	    243.17664439	   -162.99254335	    188.51057810	     39.35747749	     77.39675680
      2.83333330	    -33.70869696	      4.96729683	    -11.36246599	      1.09069619	      0.61395838	     -0.20131725	     96.02816940	     -4.58574908	      1.25504027	    101.40977105	     29.75964041	    -31.56479885	      0.00000000	    103.08423957	      0.80791447	      8.27592692	    100.90079099	     34.40009390	    -10.28190008	      0.00000000	    -28.68687802	     -1.02690779	     -3.64461162	    410.27425138	    -27.45863129	    362.39706206	     84.93973078	     88.31858564	    247.18691781	   -163.98697044	    190.18017118	     37.63509471	     76.69746570
      2.85000000	    -35.30138528	      5.95120990	    -12.21942759	      1.07438091	      0.59287275	     -0.20923960	     99.64171506	     -4.11139923	      1.54150088	    103.49649262	     29.65645650	    -29.82230926	      0.00000000	    107.28471393	      0.60213215	      7.51324301	    102.89374157	     34.26922266	    -10.76328280	      0.00000000	    -28.55224573	     -1.29636792	     -3.03620244	    415.54642339	    -28.40560169	    366.59337557	     84.18487831	     88.06141784	    251.16231599	   -164.93233995	    192.01090853	     36.67861832	     76.02780486
      2.86666670	    -36.33696378	      6.99254048	    -13.00360849	      1.08546417	      0.58553466	     -0.21787186	    101.54853089	     -3.45388818	      2.29376505	    105.28164862	     29.79397573	    -29.51314031	      0.00000000	    109.37524764	      0.39574442	      6.64580658	    103.92151062	     34.63737671	    -11.33517175	      0.00000000	    -28.65947850	     -0.97010970	     -2.82067029	    420.04390891	    -28.40811241	    370.98069745	     82.23122711	     87.64622302	    252.84918126	   -165.32816626	    193.73944123	     37.00366070	     74.37090730
      2.88333330	    -37.53968146	      7.93224984	    -13.68537161	      1.07675438	      0.57343252	     -0.21643429	    104.12756029	     -2.59439814	      3.10168738	    106.45673396	     27.78360808	    -29.70648098	      0.00000000	    111.78022015	     -0.07787003	      6.06480739	    104.87540537	     34.99090337	    -11.47733975	      0.00000000	    -28.31776554	     -1.17406989	     -2.36839057	    423.27197093	    -28.42879468	    374.27421216	     81.49853082	     87.32032501	    254.74670402	   -165.92745296	    195.04323859	     37.78302709	     72.92522558
      2.90000000	    -38.27308099	      8.33442546	    -13.48248903	      1.08200911	      0.56601762	     -0.20744427	    105.91927404	     -2.07528456	      3.72789910	    108.07137161	     26.27578168	    -29.64045148	      0.00000000	    112.93959725	     -0.34186701	      5.80826816	    105.36280139	     34.57729219	    -12.45744007	      0.00000000	    -28.12046829	     -1.35061760	     -2.17572486	    423.87105280	    -28.21441879	    375.55111685	     81.84686387	     87.30787164	    255.77238097	   -166.69107709	    195.80457395	     39.10622251	     72.48460183
      2.91666670	    -38.65438465	      8.82823738	    -13.67680640	      1.06964881	      0.56039128	     -0.21996705	    107.55535462	     -1.45170814	      4.62967113	    108.56879019	     23.93976545	    -29.50848509	      0.00000000	    114.33214694	     -0.44025616	      5.37087296	    105.98979285	     33.52889718	    -13.48992320	      0.00000000	    -28.10924357	     -1.45471574	     -1.89381960	    425.95029352	    -28.35304496	    377.92359294	     81.87581999	     87.24194704	    257.49322031	   -167.31420615	    197.99800034	     40.54551301	     71.82796998
      2.93333330	    -38.73638717	      9.08392147	    -13.68369340	      1.07297979	      0.55784945	     -0.21846368	    108.87290931	     -1.00660125	      5.51799110	    109.17236950	     21.14079038	    -29.55382156	      0.00000000	    114.95423029	     -0.35940983	      5.15056741	    106.10132056	     33.29192685	    -14.07946104	      0.00000000	    -28.17588278	     -1.47826139	     -1.79874088	    426.61795163	    -28.43316063	    379.27238995	     82.49681625	     87.20928794	    258.55082630	   -167.67545415	    200.04329096	     42.55763647	     71.22520228
      2.95000000	    -39.09317821	      9.15078887	    -13.26705967	      1.08531553	      0.56065500	     -0.21297093	    108.90045762	     -0.80720559	      6.14349600	    109.23297364	     19.22391539	    -30.14268063	      0.00000000	    115.04796457	     -0.00712473	      5.01144568	    106.15844202	     32.74118060	    -14.54154883	      0.00000000	    -27.51691763	     -1.27492820	     -1.71193898	    425.24564026	    -28.54752281	    379.98613103	     83.42859075	     87.31257557	    258.06191926	   -168.14237084	    201.32048788	     45.11823420	     70.91215854
      2.96666670	    -38.68843127	      9.16442435	    -13.39782591	      1.08684379	      0.56123473	     -0.22288138	    108.43617069	     -0.81969608	      7.03395343	    108.66858193	     19.20563980	    -30.82589205	      0.00000000	    114.32515178	      0.36937918	      4.64052383	    106.29153905	     33.26628382	    -14.56375351	      0.00000000	    -27.27023073	     -0.83993926	     -1.62010573	    424.79878222	    -28.84921752	    381.03698594	     84.08546730	     87.51949118	    257.54200906	   -168.50744543	    202.46189504	     47.24042258	     70.67598725
      2.98333330	    -38.33025513	      8.71790308	    -13.35482906	      1.09184749	      0.56367507	     -0.22756399	    107.73064882	     -1.34382636	      7.56342623	    107.98374534	     20.87819894	    -31.52778374	      0.00000000	    113.52765489	      1.21088016	      4.69229022	    106.49121494	     33.35699763	    -15.39866885	      0.00000000	    -26.67385107	      0.20799082	     -1.59741564	    423.83819696	    -29.29393230	    382.01582391	     84.69614541	     87.78903551	    256.40851433	   -168.77895276	    203.43486340	     49.09315922	     70.52753312
      3.00000000	    -37.86176024	      8.64392831	    -13.48893929	      1.09301121	      0.57005729	     -0.23204977	    107.06925772	     -1.74394950	      8.26152618	    106.95935092	     22.27196864	    -32.31052058	      0.00000000	    112.31792788	      1.70084507	      4.46352946	    106.15334455	     33.94123718	    -15.13250836	      0.00000000	    -25.87962192	      0.79704397	     -1.59672988	    422.57349183	    -30.04512512	    382.93565439	     85.33330546	     88.08886594	    255.10627278	   -169.15953419	    204.11583668	     50.68728513	     70.50952352
      3.01666670	    -37.55688133	      8.56694911	    -13.66672428	      1.09834186	      0.58358201	     -0.23668272	    105.55586427	     -2.30750415	      8.64276389	    105.03436586	     23.45763581	    -32.44452229	      0.00000000	    110.58709928	      2.03201117	      4.08187583	    104.98973895	     33.89179000	    -15.47294102	      0.00000000	    -25.00799376	      1.55408604	     -1.59003387	    421.11398803	    -30.76151555	    383.65537923	     85.62708241	     88.39483137	    253.61699184	   -169.38002801	    204.70977593	     51.78002877	     70.59867056
      3.03333330	    -37.35274906	      8.62510468	    -14.09208941	      1.10000100	      0.59652611	     -0.24027921	    103.54841317	     -2.83705261	      8.69232212	    102.37575221	     23.92706089	    -32.51112917	      0.00000000	    108.61774486	      1.88294537	      3.65339986	    103.24013165	     33.86271455	    -15.48242603	      0.00000000	    -23.79197456	      2.03912401	     -1.75785034	    419.32713215	    -30.93335755	    384.32543766	     85.89424566	     88.48803712	    252.16091387	   -169.34333182	    205.05526442	     51.94443706	     70.65034836
      3.05000000	    -36.65886264	      8.55120093	    -14.43123464	      1.09918093	      0.61338825	     -0.23701769	    101.14349948	     -3.50763148	      8.07966495	     99.95584242	     25.26561984	    -30.95563731	      0.00000000	    105.85773030	      1.58924906	      3.42205078	    100.72997912	     33.75172203	    -15.46667586	      0.00000000	    -23.82906184	      2.25694409	     -2.01698973	    417.61467432	    -31.67272976	    384.93683579	     88.08246372	     89.03881500	    251.30478640	   -168.50001855	    205.87516613	     53.84756558	     71.03322958
